<?xml version="1.0" encoding="UTF-8" standalone="no"?>
<!DOCTYPE svg PUBLIC "-//W3C//DTD SVG 1.1//EN" "http://www.w3.org/Graphics/SVG/1.1/DTD/svg11.dtd">
<!-- Created with Vectornator (http://vectornator.io/) -->
<svg height="100%" stroke-miterlimit="10" style="fill-rule:nonzero;clip-rule:evenodd;stroke-linecap:round;stroke-linejoin:round;" version="1.1" viewBox="0 0 1024 1024" width="100%" xml:space="preserve" xmlns="http://www.w3.org/2000/svg" xmlns:vectornator="http://vectornator.io" xmlns:xlink="http://www.w3.org/1999/xlink">
<defs>
<clipPath id="TextBounds">
<rect height="85.8848" width="148.365" x="282.758" y="508.754"/>
</clipPath>
<linearGradient gradientTransform="matrix(0.279284 0 0 0.279284 236.617 340.424)" gradientUnits="userSpaceOnUse" id="LinearGradient" x1="165.211" x2="696.444" y1="756.478" y2="756.478">
<stop offset="0.22314" stop-color="#bca71b"/>
<stop offset="1" stop-color="#000000"/>
</linearGradient>
<filter color-interpolation-filters="sRGB" filterUnits="userSpaceOnUse" height="56.0547" id="Filter" width="83.3798" x="277.643" y="520.433">
<feDropShadow dx="-3.67321e-05" dy="10" flood-color="#000000" flood-opacity="0.6" in="SourceGraphic" result="Shadow" stdDeviation="5"/>
</filter>
<clipPath id="TextBounds_2">
<rect height="1109.02" width="1087.74" x="-10.6001" y="-12.9222"/>
</clipPath>
<linearGradient gradientTransform="matrix(4.99745 0 0 4.99745 -1838.1 -1478.15)" gradientUnits="userSpaceOnUse" id="LinearGradient_2" x1="365.686" x2="576.314" y1="399.5" y2="399.5">
<stop offset="0.22314" stop-color="#bca71b"/>
<stop offset="1" stop-color="#000000"/>
</linearGradient>
<filter color-interpolation-filters="sRGB" filterUnits="userSpaceOnUse" height="902.706" id="Filter_2" width="902.706" x="58.353" y="77.0791">
<feDropShadow dx="-3.67321e-05" dy="10" flood-color="#000000" flood-opacity="0.6" in="SourceGraphic" result="Shadow" stdDeviation="5"/>
</filter>
</defs>
<g id="Слой-1" vectornator:layerName="Слой 1">
<g fill="url(#LinearGradient)" filter="url(#Filter)" stroke="none" vectornator:shadowAngle="1.5708" vectornator:shadowColor="#000000" vectornator:shadowOffset="10" vectornator:shadowOpacity="0.6" vectornator:shadowRadius="10">
<path clip-path="url(#TextBounds)" d="M287.643 555.908L299.371 555.908C302.837 555.908 305.795 555.219 308.246 553.84C310.696 552.462 312.574 550.467 313.88 547.855C315.186 545.244 315.839 542.108 315.839 538.449L315.839 538.4C315.839 534.741 315.182 531.617 313.868 529.03C312.554 526.442 310.672 524.46 308.221 523.081C305.771 521.703 302.821 521.014 299.371 521.014L287.643 521.014L287.643 555.908ZM291.996 551.99L291.996 524.931L299.081 524.931C301.725 524.931 303.961 525.451 305.791 526.491C307.621 527.531 309.011 529.058 309.963 531.073C310.914 533.088 311.389 535.547 311.389 538.449L311.389 538.497C311.389 541.383 310.914 543.829 309.963 545.836C309.011 547.843 307.621 549.371 305.791 550.418C303.961 551.466 301.725 551.99 299.081 551.99L291.996 551.99Z"/>
<path clip-path="url(#TextBounds)" d="M336.224 556.488C339.335 556.488 341.991 555.892 344.191 554.699C346.392 553.506 348.081 551.789 349.257 549.548C350.434 547.307 351.023 544.615 351.023 541.471L351.023 538.158L336.828 538.158L336.828 541.979L346.67 541.979L346.67 542.608C346.67 544.558 346.231 546.275 345.352 547.759C344.474 549.242 343.248 550.398 341.677 551.229C340.105 552.059 338.287 552.474 336.224 552.474C333.854 552.474 331.806 551.902 330.082 550.757C328.357 549.612 327.027 547.976 326.092 545.848C325.157 543.72 324.689 541.197 324.689 538.279L324.689 538.255C324.689 535.386 325.153 532.919 326.08 530.856C327.006 528.792 328.332 527.208 330.057 526.104C331.782 525 333.838 524.448 336.224 524.448C338.674 524.448 340.738 525.056 342.414 526.273C344.091 527.49 345.332 529.203 346.138 531.412L346.235 531.678L350.805 531.678L350.684 531.218C350.152 529.155 349.257 527.313 348 525.693C346.743 524.073 345.135 522.791 343.176 521.848C341.217 520.905 338.9 520.433 336.224 520.433C332.983 520.433 330.166 521.163 327.772 522.622C325.378 524.081 323.524 526.14 322.21 528.8C320.897 531.46 320.24 534.612 320.24 538.255L320.24 538.279C320.24 541.987 320.897 545.203 322.21 547.928C323.524 550.652 325.378 552.76 327.772 554.251C330.166 555.742 332.983 556.488 336.224 556.488Z"/>
</g>
</g>
<g id="Слой-2" vectornator:layerName="Слой 2">
<path clip-path="url(#TextBounds_2)" d="M509.706 959.785C569.995 959.785 626.751 948.246 679.973 925.169C733.195 902.091 780.143 870.216 820.816 829.542C861.49 788.869 893.365 741.921 916.443 688.699C939.52 635.477 951.059 578.721 951.059 518.432C951.059 458.143 939.52 401.387 916.443 348.165C893.365 294.943 861.49 247.995 820.816 207.321C780.143 166.648 733.123 134.772 679.756 111.695C626.39 88.6178 569.562 77.0791 509.273 77.0791C448.984 77.0791 392.228 88.6178 339.006 111.695C285.784 134.772 238.908 166.648 198.379 207.321C157.85 247.995 126.046 294.943 102.969 348.165C79.8916 401.387 68.353 458.143 68.353 518.432C68.353 578.721 79.8916 635.477 102.969 688.699C126.046 741.921 157.922 788.869 198.595 829.542C239.269 870.216 286.217 902.091 339.439 925.169C392.661 948.246 449.416 959.785 509.706 959.785ZM509.706 886.226C458.647 886.226 410.906 876.706 366.482 857.668C322.059 838.629 283.044 812.306 249.437 778.7C215.831 745.094 189.581 706.079 170.686 661.655C151.792 617.231 142.345 569.49 142.345 518.432C142.345 467.373 151.792 419.632 170.686 375.209C189.581 330.785 215.759 291.698 249.221 257.947C282.683 224.197 321.626 197.874 366.05 178.98C410.474 160.085 458.215 150.638 509.273 150.638C560.332 150.638 608.073 160.085 652.496 178.98C696.92 197.874 736.007 224.197 769.758 257.947C803.508 291.698 829.903 330.785 848.942 375.209C867.98 419.632 877.5 467.373 877.5 518.432C877.5 569.49 868.052 617.231 849.158 661.655C830.263 706.079 804.013 745.094 770.407 778.7C736.801 812.306 697.713 838.629 653.145 857.668C608.577 876.706 560.764 886.226 509.706 886.226ZM387.252 692.809C387.252 702.906 390.353 711.055 396.555 717.257C402.757 723.459 411.05 726.56 421.435 726.56L439.609 726.56L439.609 760.743C439.609 767.089 441.556 772.21 445.45 776.104C449.344 779.998 454.32 781.945 460.378 781.945C466.436 781.945 471.412 779.998 475.306 776.104C479.201 772.21 481.148 767.089 481.148 760.743L481.148 726.56L509.273 726.56L509.273 760.743C509.273 767.089 511.292 772.21 515.331 776.104C519.369 779.998 524.273 781.945 530.043 781.945C536.1 781.945 541.149 779.998 545.187 776.104C549.226 772.21 551.245 767.089 551.245 760.743L551.245 725.262C587.015 721.512 614.924 709.685 634.972 689.781C655.02 669.876 665.045 644.059 665.045 612.328C665.045 587.808 658.338 566.894 644.924 549.586C631.51 532.278 613.698 520.307 591.486 513.672C607.351 505.884 620.332 494.057 630.429 478.191C640.525 462.325 645.573 445.306 645.573 427.132C645.573 400.305 637.063 377.805 620.044 359.631C603.024 341.458 580.091 330.208 551.245 325.881L551.245 290.832C551.245 284.775 549.226 279.726 545.187 275.688C541.149 271.649 536.1 269.63 530.043 269.63C524.273 269.63 519.369 271.649 515.331 275.688C511.292 279.726 509.273 284.775 509.273 290.832L509.273 324.15L481.148 324.15L481.148 290.832C481.148 284.775 479.201 279.726 475.306 275.688C471.412 271.649 466.436 269.63 460.378 269.63C454.32 269.63 449.344 271.649 445.45 275.688C441.556 279.726 439.609 284.775 439.609 290.832L439.609 324.15L421.435 324.15C411.339 324.15 403.118 327.323 396.771 333.67C390.425 340.016 387.252 348.237 387.252 358.333L387.252 692.809ZM442.637 675.934L442.637 544.394L515.764 544.394C546.629 544.394 569.995 549.875 585.861 560.836C601.726 571.798 609.659 588.241 609.659 610.164C609.659 631.51 602.087 647.665 586.943 658.626C571.798 669.588 549.658 675.213 520.523 675.502L442.637 675.934ZM442.637 493.768L442.637 374.343L516.629 374.343C539.995 374.343 558.096 379.247 570.933 389.055C583.769 398.863 590.188 412.998 590.188 431.459C590.188 451.652 582.832 467.229 568.12 478.191C553.408 489.153 532.206 494.489 504.513 494.201L442.637 493.768Z" fill="url(#LinearGradient_2)" filter="url(#Filter_2)" stroke="none" vectornator:shadowAngle="1.5708" vectornator:shadowColor="#000000" vectornator:shadowOffset="10" vectornator:shadowOpacity="0.6" vectornator:shadowRadius="10"/>
</g>
</svg>
